<svg width="25" height="24" viewBox="0 0 25 24" fill="none" xmlns="http://www.w3.org/2000/svg">
<path d="M4.67529 5.84416H20.7935C21.1201 5.84417 21.443 5.91262 21.7416 6.04509C22.0401 6.17756 22.3075 6.37111 22.5267 6.61327C22.7458 6.85542 22.9118 7.14081 23.0139 7.45104C23.116 7.76127 23.1519 8.08944 23.1194 8.41442L22.4181 15.4274C22.3605 16.0042 22.0905 16.539 21.6607 16.928C21.2309 17.317 20.6719 17.5324 20.0922 17.5325H8.92984C8.38922 17.5327 7.86524 17.3455 7.44711 17.0028C7.02898 16.6601 6.74255 16.1831 6.63659 15.653L4.67529 5.84416Z" stroke="#151D1F" stroke-width="2.33766" stroke-linejoin="round"/>
<path d="M4.67532 5.84416L3.72856 2.05364C3.66525 1.80088 3.51929 1.57653 3.31387 1.41622C3.10846 1.25591 2.85536 1.16884 2.5948 1.16883H1.16882M8.18181 22.2078H10.5195M17.5325 22.2078H19.8701" stroke="#151D1F" stroke-width="2.33766" stroke-linecap="round" stroke-linejoin="round"/>
</svg>
