<svg width="593" height="218" viewBox="0 0 593 218" fill="none" xmlns="http://www.w3.org/2000/svg">
<path d="M41.5 36.6667C37.6389 35.6945 34.4511 33.4789 31.9367 30.02C29.4222 26.5612 28.1656 22.7212 28.1667 18.5V8.33337L41.5 3.33337L54.8334 8.33337V18.5C54.8334 22.7223 53.5767 26.5628 51.0634 30.0217C48.55 33.4806 45.3622 35.6956 41.5 36.6667Z" fill="#2F3A4F"/>
<path d="M23.3308 55.545L20.3008 66H18.7708L16.3408 57.585L13.8208 66L12.3058 66.015L9.38084 55.545H10.8358L13.1158 64.41L15.6358 55.545H17.1658L19.5658 64.38L21.8608 55.545H23.3308ZM32.4746 61.575C32.4746 61.835 32.4596 62.11 32.4296 62.4H25.8596C25.9096 63.21 26.1846 63.845 26.6846 64.305C27.1946 64.755 27.8096 64.98 28.5296 64.98C29.1196 64.98 29.6096 64.845 29.9996 64.575C30.3996 64.295 30.6796 63.925 30.8396 63.465H32.3096C32.0896 64.255 31.6496 64.9 30.9896 65.4C30.3296 65.89 29.5096 66.135 28.5296 66.135C27.7496 66.135 27.0496 65.96 26.4296 65.61C25.8196 65.26 25.3396 64.765 24.9896 64.125C24.6396 63.475 24.4646 62.725 24.4646 61.875C24.4646 61.025 24.6346 60.28 24.9746 59.64C25.3146 59 25.7896 58.51 26.3996 58.17C27.0196 57.82 27.7296 57.645 28.5296 57.645C29.3096 57.645 29.9996 57.815 30.5996 58.155C31.1996 58.495 31.6596 58.965 31.9796 59.565C32.3096 60.155 32.4746 60.825 32.4746 61.575ZM31.0646 61.29C31.0646 60.77 30.9496 60.325 30.7196 59.955C30.4896 59.575 30.1746 59.29 29.7746 59.1C29.3846 58.9 28.9496 58.8 28.4696 58.8C27.7796 58.8 27.1896 59.02 26.6996 59.46C26.2196 59.9 25.9446 60.51 25.8746 61.29H31.0646ZM33.9164 61.86C33.9164 61.02 34.0864 60.285 34.4264 59.655C34.7664 59.015 35.2314 58.52 35.8214 58.17C36.4214 57.82 37.0864 57.645 37.8164 57.645C38.5364 57.645 39.1614 57.8 39.6914 58.11C40.2214 58.42 40.6164 58.81 40.8764 59.28V57.78H42.2564V66H40.8764V64.47C40.6064 64.95 40.2014 65.35 39.6614 65.67C39.1314 65.98 38.5114 66.135 37.8014 66.135C37.0714 66.135 36.4114 65.955 35.8214 65.595C35.2314 65.235 34.7664 64.73 34.4264 64.08C34.0864 63.43 33.9164 62.69 33.9164 61.86ZM40.8764 61.875C40.8764 61.255 40.7514 60.715 40.5014 60.255C40.2514 59.795 39.9114 59.445 39.4814 59.205C39.0614 58.955 38.5964 58.83 38.0864 58.83C37.5764 58.83 37.1114 58.95 36.6914 59.19C36.2714 59.43 35.9364 59.78 35.6864 60.24C35.4364 60.7 35.3114 61.24 35.3114 61.86C35.3114 62.49 35.4364 63.04 35.6864 63.51C35.9364 63.97 36.2714 64.325 36.6914 64.575C37.1114 64.815 37.5764 64.935 38.0864 64.935C38.5964 64.935 39.0614 64.815 39.4814 64.575C39.9114 64.325 40.2514 63.97 40.5014 63.51C40.7514 63.04 40.8764 62.495 40.8764 61.875ZM46.3781 58.905V63.75C46.3781 64.15 46.4631 64.435 46.6331 64.605C46.8031 64.765 47.0981 64.845 47.5181 64.845H48.5231V66H47.2931C46.5331 66 45.9631 65.825 45.5831 65.475C45.2031 65.125 45.0131 64.55 45.0131 63.75V58.905H43.9481V57.78H45.0131V55.71H46.3781V57.78H48.5231V58.905H46.3781ZM54.407 57.63C55.027 57.63 55.587 57.765 56.087 58.035C56.587 58.295 56.977 58.69 57.257 59.22C57.547 59.75 57.692 60.395 57.692 61.155V66H56.342V61.35C56.342 60.53 56.137 59.905 55.727 59.475C55.317 59.035 54.757 58.815 54.047 58.815C53.327 58.815 52.752 59.04 52.322 59.49C51.902 59.94 51.692 60.595 51.692 61.455V66H50.327V54.9H51.692V58.95C51.962 58.53 52.332 58.205 52.802 57.975C53.282 57.745 53.817 57.63 54.407 57.63ZM67.5717 61.575C67.5717 61.835 67.5567 62.11 67.5267 62.4H60.9567C61.0067 63.21 61.2817 63.845 61.7817 64.305C62.2917 64.755 62.9067 64.98 63.6267 64.98C64.2167 64.98 64.7067 64.845 65.0967 64.575C65.4967 64.295 65.7767 63.925 65.9367 63.465H67.4067C67.1867 64.255 66.7467 64.9 66.0867 65.4C65.4267 65.89 64.6067 66.135 63.6267 66.135C62.8467 66.135 62.1467 65.96 61.5267 65.61C60.9167 65.26 60.4367 64.765 60.0867 64.125C59.7367 63.475 59.5617 62.725 59.5617 61.875C59.5617 61.025 59.7317 60.28 60.0717 59.64C60.4117 59 60.8867 58.51 61.4967 58.17C62.1167 57.82 62.8267 57.645 63.6267 57.645C64.4067 57.645 65.0967 57.815 65.6967 58.155C66.2967 58.495 66.7567 58.965 67.0767 59.565C67.4067 60.155 67.5717 60.825 67.5717 61.575ZM66.1617 61.29C66.1617 60.77 66.0467 60.325 65.8167 59.955C65.5867 59.575 65.2717 59.29 64.8717 59.1C64.4817 58.9 64.0467 58.8 63.5667 58.8C62.8767 58.8 62.2867 59.02 61.7967 59.46C61.3167 59.9 61.0417 60.51 60.9717 61.29H66.1617ZM70.8885 59.115C71.1285 58.645 71.4685 58.28 71.9085 58.02C72.3585 57.76 72.9035 57.63 73.5435 57.63V59.04H73.1835C71.6535 59.04 70.8885 59.87 70.8885 61.53V66H69.5235V57.78H70.8885V59.115ZM6.78432 85L4.29432 80.725H2.64432V85H1.27932V74.545H4.65432C5.44432 74.545 6.10932 74.68 6.64932 74.95C7.19932 75.22 7.60932 75.585 7.87932 76.045C8.14932 76.505 8.28432 77.03 8.28432 77.62C8.28432 78.34 8.07432 78.975 7.65432 79.525C7.24432 80.075 6.62432 80.44 5.79432 80.62L8.41932 85H6.78432ZM2.64432 79.63H4.65432C5.39432 79.63 5.94932 79.45 6.31932 79.09C6.68932 78.72 6.87432 78.23 6.87432 77.62C6.87432 77 6.68932 76.52 6.31932 76.18C5.95932 75.84 5.40432 75.67 4.65432 75.67H2.64432V79.63ZM18.0553 80.575C18.0553 80.835 18.0403 81.11 18.0103 81.4H11.4403C11.4903 82.21 11.7653 82.845 12.2653 83.305C12.7753 83.755 13.3903 83.98 14.1103 83.98C14.7003 83.98 15.1903 83.845 15.5803 83.575C15.9803 83.295 16.2603 82.925 16.4203 82.465H17.8903C17.6703 83.255 17.2303 83.9 16.5703 84.4C15.9103 84.89 15.0903 85.135 14.1103 85.135C13.3303 85.135 12.6303 84.96 12.0103 84.61C11.4003 84.26 10.9203 83.765 10.5703 83.125C10.2203 82.475 10.0453 81.725 10.0453 80.875C10.0453 80.025 10.2153 79.28 10.5553 78.64C10.8953 78 11.3703 77.51 11.9803 77.17C12.6003 76.82 13.3103 76.645 14.1103 76.645C14.8903 76.645 15.5803 76.815 16.1803 77.155C16.7803 77.495 17.2403 77.965 17.5603 78.565C17.8903 79.155 18.0553 79.825 18.0553 80.575ZM16.6453 80.29C16.6453 79.77 16.5303 79.325 16.3003 78.955C16.0703 78.575 15.7553 78.29 15.3553 78.1C14.9653 77.9 14.5303 77.8 14.0503 77.8C13.3603 77.8 12.7703 78.02 12.2803 78.46C11.8003 78.9 11.5253 79.51 11.4553 80.29H16.6453ZM22.9171 85.135C22.2871 85.135 21.7221 85.03 21.2221 84.82C20.7221 84.6 20.3271 84.3 20.0371 83.92C19.7471 83.53 19.5871 83.085 19.5571 82.585H20.9671C21.0071 82.995 21.1971 83.33 21.5371 83.59C21.8871 83.85 22.3421 83.98 22.9021 83.98C23.4221 83.98 23.8321 83.865 24.1321 83.635C24.4321 83.405 24.5821 83.115 24.5821 82.765C24.5821 82.405 24.4221 82.14 24.1021 81.97C23.7821 81.79 23.2871 81.615 22.6171 81.445C22.0071 81.285 21.5071 81.125 21.1171 80.965C20.7371 80.795 20.4071 80.55 20.1271 80.23C19.8571 79.9 19.7221 79.47 19.7221 78.94C19.7221 78.52 19.8471 78.135 20.0971 77.785C20.3471 77.435 20.7021 77.16 21.1621 76.96C21.6221 76.75 22.1471 76.645 22.7371 76.645C23.6471 76.645 24.3821 76.875 24.9421 77.335C25.5021 77.795 25.8021 78.425 25.8421 79.225H24.4771C24.4471 78.795 24.2721 78.45 23.9521 78.19C23.6421 77.93 23.2221 77.8 22.6921 77.8C22.2021 77.8 21.8121 77.905 21.5221 78.115C21.2321 78.325 21.0871 78.6 21.0871 78.94C21.0871 79.21 21.1721 79.435 21.3421 79.615C21.5221 79.785 21.7421 79.925 22.0021 80.035C22.2721 80.135 22.6421 80.25 23.1121 80.38C23.7021 80.54 24.1821 80.7 24.5521 80.86C24.9221 81.01 25.2371 81.24 25.4971 81.55C25.7671 81.86 25.9071 82.265 25.9171 82.765C25.9171 83.215 25.7921 83.62 25.5421 83.98C25.2921 84.34 24.9371 84.625 24.4771 84.835C24.0271 85.035 23.5071 85.135 22.9171 85.135ZM28.699 75.445C28.439 75.445 28.219 75.355 28.039 75.175C27.859 74.995 27.769 74.775 27.769 74.515C27.769 74.255 27.859 74.035 28.039 73.855C28.219 73.675 28.439 73.585 28.699 73.585C28.949 73.585 29.159 73.675 29.329 73.855C29.509 74.035 29.599 74.255 29.599 74.515C29.599 74.775 29.509 74.995 29.329 75.175C29.159 75.355 28.949 75.445 28.699 75.445ZM29.359 76.78V85H27.994V76.78H29.359ZM34.7454 85.135C34.1154 85.135 33.5504 85.03 33.0504 84.82C32.5504 84.6 32.1554 84.3 31.8654 83.92C31.5754 83.53 31.4154 83.085 31.3854 82.585H32.7954C32.8354 82.995 33.0254 83.33 33.3654 83.59C33.7154 83.85 34.1704 83.98 34.7304 83.98C35.2504 83.98 35.6604 83.865 35.9604 83.635C36.2604 83.405 36.4104 83.115 36.4104 82.765C36.4104 82.405 36.2504 82.14 35.9304 81.97C35.6104 81.79 35.1154 81.615 34.4454 81.445C33.8354 81.285 33.3354 81.125 32.9454 80.965C32.5654 80.795 32.2354 80.55 31.9554 80.23C31.6854 79.9 31.5504 79.47 31.5504 78.94C31.5504 78.52 31.6754 78.135 31.9254 77.785C32.1754 77.435 32.5304 77.16 32.9904 76.96C33.4504 76.75 33.9754 76.645 34.5654 76.645C35.4754 76.645 36.2104 76.875 36.7704 77.335C37.3304 77.795 37.6304 78.425 37.6704 79.225H36.3054C36.2754 78.795 36.1004 78.45 35.7804 78.19C35.4704 77.93 35.0504 77.8 34.5204 77.8C34.0304 77.8 33.6404 77.905 33.3504 78.115C33.0604 78.325 32.9154 78.6 32.9154 78.94C32.9154 79.21 33.0004 79.435 33.1704 79.615C33.3504 79.785 33.5704 79.925 33.8304 80.035C34.1004 80.135 34.4704 80.25 34.9404 80.38C35.5304 80.54 36.0104 80.7 36.3804 80.86C36.7504 81.01 37.0654 81.24 37.3254 81.55C37.5954 81.86 37.7354 82.265 37.7454 82.765C37.7454 83.215 37.6204 83.62 37.3704 83.98C37.1204 84.34 36.7654 84.625 36.3054 84.835C35.8554 85.035 35.3354 85.135 34.7454 85.135ZM41.4873 77.905V82.75C41.4873 83.15 41.5723 83.435 41.7423 83.605C41.9123 83.765 42.2073 83.845 42.6273 83.845H43.6323V85H42.4023C41.6423 85 41.0723 84.825 40.6923 84.475C40.3123 84.125 40.1223 83.55 40.1223 82.75V77.905H39.0573V76.78H40.1223V74.71H41.4873V76.78H43.6323V77.905H41.4873ZM44.9262 80.86C44.9262 80.02 45.0962 79.285 45.4362 78.655C45.7762 78.015 46.2412 77.52 46.8312 77.17C47.4312 76.82 48.0962 76.645 48.8262 76.645C49.5462 76.645 50.1712 76.8 50.7012 77.11C51.2312 77.42 51.6262 77.81 51.8862 78.28V76.78H53.2662V85H51.8862V83.47C51.6162 83.95 51.2112 84.35 50.6712 84.67C50.1412 84.98 49.5212 85.135 48.8112 85.135C48.0812 85.135 47.4212 84.955 46.8312 84.595C46.2412 84.235 45.7762 83.73 45.4362 83.08C45.0962 82.43 44.9262 81.69 44.9262 80.86ZM51.8862 80.875C51.8862 80.255 51.7612 79.715 51.5112 79.255C51.2612 78.795 50.9212 78.445 50.4912 78.205C50.0712 77.955 49.6062 77.83 49.0962 77.83C48.5862 77.83 48.1212 77.95 47.7012 78.19C47.2812 78.43 46.9462 78.78 46.6962 79.24C46.4462 79.7 46.3212 80.24 46.3212 80.86C46.3212 81.49 46.4462 82.04 46.6962 82.51C46.9462 82.97 47.2812 83.325 47.7012 83.575C48.1212 83.815 48.5862 83.935 49.0962 83.935C49.6062 83.935 50.0712 83.815 50.4912 83.575C50.9212 83.325 51.2612 82.97 51.5112 82.51C51.7612 82.04 51.8862 81.495 51.8862 80.875ZM59.7279 76.63C60.7279 76.63 61.5379 76.935 62.1579 77.545C62.7779 78.145 63.0879 79.015 63.0879 80.155V85H61.7379V80.35C61.7379 79.53 61.5329 78.905 61.1229 78.475C60.7129 78.035 60.1529 77.815 59.4429 77.815C58.7229 77.815 58.1479 78.04 57.7179 78.49C57.2979 78.94 57.0879 79.595 57.0879 80.455V85H55.7229V76.78H57.0879V77.95C57.3579 77.53 57.7229 77.205 58.1829 76.975C58.6529 76.745 59.1679 76.63 59.7279 76.63ZM64.9576 80.875C64.9576 80.025 65.1276 79.285 65.4676 78.655C65.8076 78.015 66.2776 77.52 66.8776 77.17C67.4876 76.82 68.1826 76.645 68.9626 76.645C69.9726 76.645 70.8026 76.89 71.4526 77.38C72.1126 77.87 72.5476 78.55 72.7576 79.42H71.2876C71.1476 78.92 70.8726 78.525 70.4626 78.235C70.0626 77.945 69.5626 77.8 68.9626 77.8C68.1826 77.8 67.5526 78.07 67.0726 78.61C66.5926 79.14 66.3526 79.895 66.3526 80.875C66.3526 81.865 66.5926 82.63 67.0726 83.17C67.5526 83.71 68.1826 83.98 68.9626 83.98C69.5626 83.98 70.0626 83.84 70.4626 83.56C70.8626 83.28 71.1376 82.88 71.2876 82.36H72.7576C72.5376 83.2 72.0976 83.875 71.4376 84.385C70.7776 84.885 69.9526 85.135 68.9626 85.135C68.1826 85.135 67.4876 84.96 66.8776 84.61C66.2776 84.26 65.8076 83.765 65.4676 83.125C65.1276 82.485 64.9576 81.735 64.9576 80.875ZM82.2289 80.575C82.2289 80.835 82.2139 81.11 82.1839 81.4H75.6139C75.6639 82.21 75.9389 82.845 76.4389 83.305C76.9489 83.755 77.5639 83.98 78.2839 83.98C78.8739 83.98 79.3639 83.845 79.7539 83.575C80.1539 83.295 80.4339 82.925 80.5939 82.465H82.0639C81.8439 83.255 81.4039 83.9 80.7439 84.4C80.0839 84.89 79.2639 85.135 78.2839 85.135C77.5039 85.135 76.8039 84.96 76.1839 84.61C75.5739 84.26 75.0939 83.765 74.7439 83.125C74.3939 82.475 74.2189 81.725 74.2189 80.875C74.2189 80.025 74.3889 79.28 74.7289 78.64C75.0689 78 75.5439 77.51 76.1539 77.17C76.7739 76.82 77.4839 76.645 78.2839 76.645C79.0639 76.645 79.7539 76.815 80.3539 77.155C80.9539 77.495 81.4139 77.965 81.7339 78.565C82.0639 79.155 82.2289 79.825 82.2289 80.575ZM80.8189 80.29C80.8189 79.77 80.7039 79.325 80.4739 78.955C80.2439 78.575 79.9289 78.29 79.5289 78.1C79.1389 77.9 78.7039 77.8 78.2239 77.8C77.5339 77.8 76.9439 78.02 76.4539 78.46C75.9739 78.9 75.6989 79.51 75.6289 80.29H80.8189Z" fill="#444E61"/>
<path d="M210.783 24.7667L213.167 22.3834L210.783 20L204.833 25.95L190.55 11.6667L196.5 5.71671L194.117 3.33337L191.733 5.71671L189.35 3.33337L185.783 6.90004L183.4 4.51671L181.017 6.90004L183.4 9.28337L179.833 12.85L182.217 15.2334L179.833 17.6167L182.217 20L188.167 14.05L202.45 28.3334L196.5 34.2834L198.883 36.6667L201.267 34.2834L203.65 36.6667L207.217 33.1L209.6 35.4834L211.983 33.1L209.6 30.7167L213.167 27.15L210.783 24.7667Z" fill="#2F3A4F"/>
<path d="M164.705 55.545C165.845 55.545 166.83 55.76 167.66 56.19C168.5 56.61 169.14 57.215 169.58 58.005C170.03 58.795 170.255 59.725 170.255 60.795C170.255 61.865 170.03 62.795 169.58 63.585C169.14 64.365 168.5 64.965 167.66 65.385C166.83 65.795 165.845 66 164.705 66H161.45V55.545H164.705ZM164.705 64.875C166.055 64.875 167.085 64.52 167.795 63.81C168.505 63.09 168.86 62.085 168.86 60.795C168.86 59.495 168.5 58.48 167.78 57.75C167.07 57.02 166.045 56.655 164.705 56.655H162.815V64.875H164.705ZM179.496 57.78V66H178.131V64.785C177.871 65.205 177.506 65.535 177.036 65.775C176.576 66.005 176.066 66.12 175.506 66.12C174.866 66.12 174.291 65.99 173.781 65.73C173.271 65.46 172.866 65.06 172.566 64.53C172.276 64 172.131 63.355 172.131 62.595V57.78H173.481V62.415C173.481 63.225 173.686 63.85 174.096 64.29C174.506 64.72 175.066 64.935 175.776 64.935C176.506 64.935 177.081 64.71 177.501 64.26C177.921 63.81 178.131 63.155 178.131 62.295V57.78H179.496ZM183.315 59.115C183.555 58.645 183.895 58.28 184.335 58.02C184.785 57.76 185.33 57.63 185.97 57.63V59.04H185.61C184.08 59.04 183.315 59.87 183.315 61.53V66H181.95V57.78H183.315V59.115ZM187.186 61.86C187.186 61.02 187.356 60.285 187.696 59.655C188.036 59.015 188.501 58.52 189.091 58.17C189.691 57.82 190.356 57.645 191.086 57.645C191.806 57.645 192.431 57.8 192.961 58.11C193.491 58.42 193.886 58.81 194.146 59.28V57.78H195.526V66H194.146V64.47C193.876 64.95 193.471 65.35 192.931 65.67C192.401 65.98 191.781 66.135 191.071 66.135C190.341 66.135 189.681 65.955 189.091 65.595C188.501 65.235 188.036 64.73 187.696 64.08C187.356 63.43 187.186 62.69 187.186 61.86ZM194.146 61.875C194.146 61.255 194.021 60.715 193.771 60.255C193.521 59.795 193.181 59.445 192.751 59.205C192.331 58.955 191.866 58.83 191.356 58.83C190.846 58.83 190.381 58.95 189.961 59.19C189.541 59.43 189.206 59.78 188.956 60.24C188.706 60.7 188.581 61.24 188.581 61.86C188.581 62.49 188.706 63.04 188.956 63.51C189.206 63.97 189.541 64.325 189.961 64.575C190.381 64.815 190.846 64.935 191.356 64.935C191.866 64.935 192.331 64.815 192.751 64.575C193.181 64.325 193.521 63.97 193.771 63.51C194.021 63.04 194.146 62.495 194.146 61.875ZM199.348 59.31C199.628 58.82 200.038 58.42 200.578 58.11C201.118 57.8 201.733 57.645 202.423 57.645C203.163 57.645 203.828 57.82 204.418 58.17C205.008 58.52 205.473 59.015 205.813 59.655C206.153 60.285 206.323 61.02 206.323 61.86C206.323 62.69 206.153 63.43 205.813 64.08C205.473 64.73 205.003 65.235 204.403 65.595C203.813 65.955 203.153 66.135 202.423 66.135C201.713 66.135 201.088 65.98 200.548 65.67C200.018 65.36 199.618 64.965 199.348 64.485V66H197.983V54.9H199.348V59.31ZM204.928 61.86C204.928 61.24 204.803 60.7 204.553 60.24C204.303 59.78 203.963 59.43 203.533 59.19C203.113 58.95 202.648 58.83 202.138 58.83C201.638 58.83 201.173 58.955 200.743 59.205C200.323 59.445 199.983 59.8 199.723 60.27C199.473 60.73 199.348 61.265 199.348 61.875C199.348 62.495 199.473 63.04 199.723 63.51C199.983 63.97 200.323 64.325 200.743 64.575C201.173 64.815 201.638 64.935 202.138 64.935C202.648 64.935 203.113 64.815 203.533 64.575C203.963 64.325 204.303 63.97 204.553 63.51C204.803 63.04 204.928 62.49 204.928 61.86ZM208.975 56.445C208.715 56.445 208.495 56.355 208.315 56.175C208.135 55.995 208.045 55.775 208.045 55.515C208.045 55.255 208.135 55.035 208.315 54.855C208.495 54.675 208.715 54.585 208.975 54.585C209.225 54.585 209.435 54.675 209.605 54.855C209.785 55.035 209.875 55.255 209.875 55.515C209.875 55.775 209.785 55.995 209.605 56.175C209.435 56.355 209.225 56.445 208.975 56.445ZM209.635 57.78V66H208.27V57.78H209.635ZM213.476 54.9V66H212.111V54.9H213.476ZM216.657 56.445C216.397 56.445 216.177 56.355 215.997 56.175C215.817 55.995 215.727 55.775 215.727 55.515C215.727 55.255 215.817 55.035 215.997 54.855C216.177 54.675 216.397 54.585 216.657 54.585C216.907 54.585 217.117 54.675 217.287 54.855C217.467 55.035 217.557 55.255 217.557 55.515C217.557 55.775 217.467 55.995 217.287 56.175C217.117 56.355 216.907 56.445 216.657 56.445ZM217.317 57.78V66H215.952V57.78H217.317ZM221.459 58.905V63.75C221.459 64.15 221.544 64.435 221.714 64.605C221.884 64.765 222.179 64.845 222.599 64.845H223.604V66H222.374C221.614 66 221.044 65.825 220.664 65.475C220.284 65.125 220.094 64.55 220.094 63.75V58.905H219.029V57.78H220.094V55.71H221.459V57.78H223.604V58.905H221.459ZM232.488 57.78L227.538 69.87H226.128L227.748 65.91L224.433 57.78H225.948L228.528 64.44L231.078 57.78H232.488Z" fill="#444E61"/>
<path d="M362.5 25.8334C360.953 25.8334 359.469 25.2188 358.375 24.1248C357.281 23.0309 356.667 21.5471 356.667 20C356.667 18.4529 357.281 16.9692 358.375 15.8753C359.469 14.7813 360.953 14.1667 362.5 14.1667C364.047 14.1667 365.531 14.7813 366.625 15.8753C367.719 16.9692 368.333 18.4529 368.333 20C368.333 21.5471 367.719 23.0309 366.625 24.1248C365.531 25.2188 364.047 25.8334 362.5 25.8334ZM374.883 21.6167C374.95 21.0834 375 20.55 375 20C375 19.45 374.95 18.9 374.883 18.3334L378.4 15.6167C378.717 15.3667 378.8 14.9167 378.6 14.55L375.267 8.78338C375.067 8.41671 374.617 8.26671 374.25 8.41671L370.1 10.0834C369.233 9.43338 368.333 8.86671 367.283 8.45004L366.667 4.03338C366.633 3.83707 366.531 3.65909 366.378 3.53096C366.225 3.40284 366.033 3.33284 365.833 3.33338H359.167C358.75 3.33338 358.4 3.63338 358.333 4.03338L357.717 8.45004C356.667 8.86671 355.767 9.43338 354.9 10.0834L350.75 8.41671C350.383 8.26671 349.933 8.41671 349.733 8.78338L346.4 14.55C346.183 14.9167 346.283 15.3667 346.6 15.6167L350.117 18.3334C350.05 18.9 350 19.45 350 20C350 20.55 350.05 21.0834 350.117 21.6167L346.6 24.3834C346.283 24.6334 346.183 25.0834 346.4 25.45L349.733 31.2167C349.933 31.5834 350.383 31.7167 350.75 31.5834L354.9 29.9C355.767 30.5667 356.667 31.1334 357.717 31.55L358.333 35.9667C358.4 36.3667 358.75 36.6667 359.167 36.6667H365.833C366.25 36.6667 366.6 36.3667 366.667 35.9667L367.283 31.55C368.333 31.1167 369.233 30.5667 370.1 29.9L374.25 31.5834C374.617 31.7167 375.067 31.5834 375.267 31.2167L378.6 25.45C378.8 25.0834 378.717 24.6334 378.4 24.3834L374.883 21.6167Z" fill="#2F3A4F"/>
<path d="M310.662 60.765C310.662 59.745 310.892 58.83 311.352 58.02C311.812 57.2 312.437 56.56 313.227 56.1C314.027 55.64 314.912 55.41 315.882 55.41C317.022 55.41 318.017 55.685 318.867 56.235C319.717 56.785 320.337 57.565 320.727 58.575H319.092C318.802 57.945 318.382 57.46 317.832 57.12C317.292 56.78 316.642 56.61 315.882 56.61C315.152 56.61 314.497 56.78 313.917 57.12C313.337 57.46 312.882 57.945 312.552 58.575C312.222 59.195 312.057 59.925 312.057 60.765C312.057 61.595 312.222 62.325 312.552 62.955C312.882 63.575 313.337 64.055 313.917 64.395C314.497 64.735 315.152 64.905 315.882 64.905C316.642 64.905 317.292 64.74 317.832 64.41C318.382 64.07 318.802 63.585 319.092 62.955H320.727C320.337 63.955 319.717 64.73 318.867 65.28C318.017 65.82 317.022 66.09 315.882 66.09C314.912 66.09 314.027 65.865 313.227 65.415C312.437 64.955 311.812 64.32 311.352 63.51C310.892 62.7 310.662 61.785 310.662 60.765ZM330.199 57.78V66H328.834V64.785C328.574 65.205 328.209 65.535 327.739 65.775C327.279 66.005 326.769 66.12 326.209 66.12C325.569 66.12 324.994 65.99 324.484 65.73C323.974 65.46 323.569 65.06 323.269 64.53C322.979 64 322.834 63.355 322.834 62.595V57.78H324.184V62.415C324.184 63.225 324.389 63.85 324.799 64.29C325.209 64.72 325.769 64.935 326.479 64.935C327.209 64.935 327.784 64.71 328.204 64.26C328.624 63.81 328.834 63.155 328.834 62.295V57.78H330.199ZM335.564 66.135C334.934 66.135 334.369 66.03 333.869 65.82C333.369 65.6 332.974 65.3 332.684 64.92C332.394 64.53 332.234 64.085 332.204 63.585H333.614C333.654 63.995 333.844 64.33 334.184 64.59C334.534 64.85 334.989 64.98 335.549 64.98C336.069 64.98 336.479 64.865 336.779 64.635C337.079 64.405 337.229 64.115 337.229 63.765C337.229 63.405 337.069 63.14 336.749 62.97C336.429 62.79 335.934 62.615 335.264 62.445C334.654 62.285 334.154 62.125 333.764 61.965C333.384 61.795 333.054 61.55 332.774 61.23C332.504 60.9 332.369 60.47 332.369 59.94C332.369 59.52 332.494 59.135 332.744 58.785C332.994 58.435 333.349 58.16 333.809 57.96C334.269 57.75 334.794 57.645 335.384 57.645C336.294 57.645 337.029 57.875 337.589 58.335C338.149 58.795 338.449 59.425 338.489 60.225H337.124C337.094 59.795 336.919 59.45 336.599 59.19C336.289 58.93 335.869 58.8 335.339 58.8C334.849 58.8 334.459 58.905 334.169 59.115C333.879 59.325 333.734 59.6 333.734 59.94C333.734 60.21 333.819 60.435 333.989 60.615C334.169 60.785 334.389 60.925 334.649 61.035C334.919 61.135 335.289 61.25 335.759 61.38C336.349 61.54 336.829 61.7 337.199 61.86C337.569 62.01 337.884 62.24 338.144 62.55C338.414 62.86 338.554 63.265 338.564 63.765C338.564 64.215 338.439 64.62 338.189 64.98C337.939 65.34 337.584 65.625 337.124 65.835C336.674 66.035 336.154 66.135 335.564 66.135ZM342.306 58.905V63.75C342.306 64.15 342.391 64.435 342.561 64.605C342.731 64.765 343.026 64.845 343.446 64.845H344.451V66H343.221C342.461 66 341.891 65.825 341.511 65.475C341.131 65.125 340.941 64.55 340.941 63.75V58.905H339.876V57.78H340.941V55.71H342.306V57.78H344.451V58.905H342.306ZM349.84 66.135C349.07 66.135 348.37 65.96 347.74 65.61C347.12 65.26 346.63 64.765 346.27 64.125C345.92 63.475 345.745 62.725 345.745 61.875C345.745 61.035 345.925 60.295 346.285 59.655C346.655 59.005 347.155 58.51 347.785 58.17C348.415 57.82 349.12 57.645 349.9 57.645C350.68 57.645 351.385 57.82 352.015 58.17C352.645 58.51 353.14 59 353.5 59.64C353.87 60.28 354.055 61.025 354.055 61.875C354.055 62.725 353.865 63.475 353.485 64.125C353.115 64.765 352.61 65.26 351.97 65.61C351.33 65.96 350.62 66.135 349.84 66.135ZM349.84 64.935C350.33 64.935 350.79 64.82 351.22 64.59C351.65 64.36 351.995 64.015 352.255 63.555C352.525 63.095 352.66 62.535 352.66 61.875C352.66 61.215 352.53 60.655 352.27 60.195C352.01 59.735 351.67 59.395 351.25 59.175C350.83 58.945 350.375 58.83 349.885 58.83C349.385 58.83 348.925 58.945 348.505 59.175C348.095 59.395 347.765 59.735 347.515 60.195C347.265 60.655 347.14 61.215 347.14 61.875C347.14 62.545 347.26 63.11 347.5 63.57C347.75 64.03 348.08 64.375 348.49 64.605C348.9 64.825 349.35 64.935 349.84 64.935ZM365.884 57.63C366.524 57.63 367.094 57.765 367.594 58.035C368.094 58.295 368.489 58.69 368.779 59.22C369.069 59.75 369.214 60.395 369.214 61.155V66H367.864V61.35C367.864 60.53 367.659 59.905 367.249 59.475C366.849 59.035 366.304 58.815 365.614 58.815C364.904 58.815 364.339 59.045 363.919 59.505C363.499 59.955 363.289 60.61 363.289 61.47V66H361.939V61.35C361.939 60.53 361.734 59.905 361.324 59.475C360.924 59.035 360.379 58.815 359.689 58.815C358.979 58.815 358.414 59.045 357.994 59.505C357.574 59.955 357.364 60.61 357.364 61.47V66H355.999V57.78H357.364V58.965C357.634 58.535 357.994 58.205 358.444 57.975C358.904 57.745 359.409 57.63 359.959 57.63C360.649 57.63 361.259 57.785 361.789 58.095C362.319 58.405 362.714 58.86 362.974 59.46C363.204 58.88 363.584 58.43 364.114 58.11C364.644 57.79 365.234 57.63 365.884 57.63ZM372.309 56.445C372.049 56.445 371.829 56.355 371.649 56.175C371.469 55.995 371.379 55.775 371.379 55.515C371.379 55.255 371.469 55.035 371.649 54.855C371.829 54.675 372.049 54.585 372.309 54.585C372.559 54.585 372.769 54.675 372.939 54.855C373.119 55.035 373.209 55.255 373.209 55.515C373.209 55.775 373.119 55.995 372.939 56.175C372.769 56.355 372.559 56.445 372.309 56.445ZM372.969 57.78V66H371.604V57.78H372.969ZM376.465 64.875H380.5V66H374.905V64.875L378.895 58.89H374.935V57.78H380.47V58.89L376.465 64.875ZM381.911 61.86C381.911 61.02 382.081 60.285 382.421 59.655C382.761 59.015 383.226 58.52 383.816 58.17C384.416 57.82 385.081 57.645 385.811 57.645C386.531 57.645 387.156 57.8 387.686 58.11C388.216 58.42 388.611 58.81 388.871 59.28V57.78H390.251V66H388.871V64.47C388.601 64.95 388.196 65.35 387.656 65.67C387.126 65.98 386.506 66.135 385.796 66.135C385.066 66.135 384.406 65.955 383.816 65.595C383.226 65.235 382.761 64.73 382.421 64.08C382.081 63.43 381.911 62.69 381.911 61.86ZM388.871 61.875C388.871 61.255 388.746 60.715 388.496 60.255C388.246 59.795 387.906 59.445 387.476 59.205C387.056 58.955 386.591 58.83 386.081 58.83C385.571 58.83 385.106 58.95 384.686 59.19C384.266 59.43 383.931 59.78 383.681 60.24C383.431 60.7 383.306 61.24 383.306 61.86C383.306 62.49 383.431 63.04 383.681 63.51C383.931 63.97 384.266 64.325 384.686 64.575C385.106 64.815 385.571 64.935 386.081 64.935C386.591 64.935 387.056 64.815 387.476 64.575C387.906 64.325 388.246 63.97 388.496 63.51C388.746 63.04 388.871 62.495 388.871 61.875ZM394.073 59.31C394.353 58.82 394.763 58.42 395.303 58.11C395.843 57.8 396.458 57.645 397.148 57.645C397.888 57.645 398.553 57.82 399.143 58.17C399.733 58.52 400.198 59.015 400.538 59.655C400.878 60.285 401.048 61.02 401.048 61.86C401.048 62.69 400.878 63.43 400.538 64.08C400.198 64.73 399.728 65.235 399.128 65.595C398.538 65.955 397.878 66.135 397.148 66.135C396.438 66.135 395.813 65.98 395.273 65.67C394.743 65.36 394.343 64.965 394.073 64.485V66H392.708V54.9H394.073V59.31ZM399.653 61.86C399.653 61.24 399.528 60.7 399.278 60.24C399.028 59.78 398.688 59.43 398.258 59.19C397.838 58.95 397.373 58.83 396.863 58.83C396.363 58.83 395.898 58.955 395.468 59.205C395.048 59.445 394.708 59.8 394.448 60.27C394.198 60.73 394.073 61.265 394.073 61.875C394.073 62.495 394.198 63.04 394.448 63.51C394.708 63.97 395.048 64.325 395.468 64.575C395.898 64.815 396.363 64.935 396.863 64.935C397.373 64.935 397.838 64.815 398.258 64.575C398.688 64.325 399.028 63.97 399.278 63.51C399.528 63.04 399.653 62.49 399.653 61.86ZM404.36 54.9V66H402.995V54.9H404.36ZM414.336 61.575C414.336 61.835 414.321 62.11 414.291 62.4H407.721C407.771 63.21 408.046 63.845 408.546 64.305C409.056 64.755 409.671 64.98 410.391 64.98C410.981 64.98 411.471 64.845 411.861 64.575C412.261 64.295 412.541 63.925 412.701 63.465H414.171C413.951 64.255 413.511 64.9 412.851 65.4C412.191 65.89 411.371 66.135 410.391 66.135C409.611 66.135 408.911 65.96 408.291 65.61C407.681 65.26 407.201 64.765 406.851 64.125C406.501 63.475 406.326 62.725 406.326 61.875C406.326 61.025 406.496 60.28 406.836 59.64C407.176 59 407.651 58.51 408.261 58.17C408.881 57.82 409.591 57.645 410.391 57.645C411.171 57.645 411.861 57.815 412.461 58.155C413.061 58.495 413.521 58.965 413.841 59.565C414.171 60.155 414.336 60.825 414.336 61.575ZM412.926 61.29C412.926 60.77 412.811 60.325 412.581 59.955C412.351 59.575 412.036 59.29 411.636 59.1C411.246 58.9 410.811 58.8 410.331 58.8C409.641 58.8 409.051 59.02 408.561 59.46C408.081 59.9 407.806 60.51 407.736 61.29H412.926Z" fill="#444E61"/>
<path d="M560.333 31.6667L545.167 16.5001C546.667 12.6667 545.833 8.16673 542.667 5.00006C539.333 1.66673 534.333 1.00006 530.333 2.83339L537.5 10.0001L532.5 15.0001L525.167 7.83339C523.167 11.8334 524 16.8334 527.333 20.1667C530.5 23.3334 535 24.1667 538.833 22.6667L554 37.8334C554.667 38.5001 555.667 38.5001 556.333 37.8334L560.167 34.0001C561 33.3334 561 32.1667 560.333 31.6667Z" fill="#2F3A4F"/>
<path d="M530.683 64.89H534.343V66H529.318V55.545H530.683V64.89ZM539.528 66.135C538.758 66.135 538.058 65.96 537.428 65.61C536.808 65.26 536.318 64.765 535.958 64.125C535.608 63.475 535.433 62.725 535.433 61.875C535.433 61.035 535.613 60.295 535.973 59.655C536.343 59.005 536.843 58.51 537.473 58.17C538.103 57.82 538.808 57.645 539.588 57.645C540.368 57.645 541.073 57.82 541.703 58.17C542.333 58.51 542.828 59 543.188 59.64C543.558 60.28 543.743 61.025 543.743 61.875C543.743 62.725 543.553 63.475 543.173 64.125C542.803 64.765 542.298 65.26 541.658 65.61C541.018 65.96 540.308 66.135 539.528 66.135ZM539.528 64.935C540.018 64.935 540.478 64.82 540.908 64.59C541.338 64.36 541.683 64.015 541.943 63.555C542.213 63.095 542.348 62.535 542.348 61.875C542.348 61.215 542.218 60.655 541.958 60.195C541.698 59.735 541.358 59.395 540.938 59.175C540.518 58.945 540.063 58.83 539.573 58.83C539.073 58.83 538.613 58.945 538.193 59.175C537.783 59.395 537.453 59.735 537.203 60.195C536.953 60.655 536.828 61.215 536.828 61.875C536.828 62.545 536.948 63.11 537.188 63.57C537.438 64.03 537.768 64.375 538.178 64.605C538.588 64.825 539.038 64.935 539.528 64.935ZM556.637 57.78L554.072 66H552.662L550.682 59.475L548.702 66H547.292L544.712 57.78H546.107L547.997 64.68L550.037 57.78H551.432L553.427 64.695L555.287 57.78H556.637ZM504.086 74.62V85H502.721V77.26L499.271 85H498.311L494.846 77.245V85H493.481V74.62H494.951L498.791 83.2L502.631 74.62H504.086ZM506.041 80.86C506.041 80.02 506.211 79.285 506.551 78.655C506.891 78.015 507.356 77.52 507.946 77.17C508.546 76.82 509.211 76.645 509.941 76.645C510.661 76.645 511.286 76.8 511.816 77.11C512.346 77.42 512.741 77.81 513.001 78.28V76.78H514.381V85H513.001V83.47C512.731 83.95 512.326 84.35 511.786 84.67C511.256 84.98 510.636 85.135 509.926 85.135C509.196 85.135 508.536 84.955 507.946 84.595C507.356 84.235 506.891 83.73 506.551 83.08C506.211 82.43 506.041 81.69 506.041 80.86ZM513.001 80.875C513.001 80.255 512.876 79.715 512.626 79.255C512.376 78.795 512.036 78.445 511.606 78.205C511.186 77.955 510.721 77.83 510.211 77.83C509.701 77.83 509.236 77.95 508.816 78.19C508.396 78.43 508.061 78.78 507.811 79.24C507.561 79.7 507.436 80.24 507.436 80.86C507.436 81.49 507.561 82.04 507.811 82.51C508.061 82.97 508.396 83.325 508.816 83.575C509.236 83.815 509.701 83.935 510.211 83.935C510.721 83.935 511.186 83.815 511.606 83.575C512.036 83.325 512.376 82.97 512.626 82.51C512.876 82.04 513.001 81.495 513.001 80.875ZM517.543 75.445C517.283 75.445 517.063 75.355 516.883 75.175C516.703 74.995 516.613 74.775 516.613 74.515C516.613 74.255 516.703 74.035 516.883 73.855C517.063 73.675 517.283 73.585 517.543 73.585C517.793 73.585 518.003 73.675 518.173 73.855C518.353 74.035 518.443 74.255 518.443 74.515C518.443 74.775 518.353 74.995 518.173 75.175C518.003 75.355 517.793 75.445 517.543 75.445ZM518.203 76.78V85H516.838V76.78H518.203ZM524.684 76.63C525.684 76.63 526.494 76.935 527.114 77.545C527.734 78.145 528.044 79.015 528.044 80.155V85H526.694V80.35C526.694 79.53 526.489 78.905 526.079 78.475C525.669 78.035 525.109 77.815 524.399 77.815C523.679 77.815 523.104 78.04 522.674 78.49C522.254 78.94 522.044 79.595 522.044 80.455V85H520.679V76.78H522.044V77.95C522.314 77.53 522.679 77.205 523.139 76.975C523.609 76.745 524.124 76.63 524.684 76.63ZM532.089 77.905V82.75C532.089 83.15 532.174 83.435 532.344 83.605C532.514 83.765 532.809 83.845 533.229 83.845H534.234V85H533.004C532.244 85 531.674 84.825 531.294 84.475C530.914 84.125 530.724 83.55 530.724 82.75V77.905H529.659V76.78H530.724V74.71H532.089V76.78H534.234V77.905H532.089ZM543.538 80.575C543.538 80.835 543.523 81.11 543.493 81.4H536.923C536.973 82.21 537.248 82.845 537.748 83.305C538.258 83.755 538.873 83.98 539.593 83.98C540.183 83.98 540.673 83.845 541.063 83.575C541.463 83.295 541.743 82.925 541.903 82.465H543.373C543.153 83.255 542.713 83.9 542.053 84.4C541.393 84.89 540.573 85.135 539.593 85.135C538.813 85.135 538.113 84.96 537.493 84.61C536.883 84.26 536.403 83.765 536.053 83.125C535.703 82.475 535.528 81.725 535.528 80.875C535.528 80.025 535.698 79.28 536.038 78.64C536.378 78 536.853 77.51 537.463 77.17C538.083 76.82 538.793 76.645 539.593 76.645C540.373 76.645 541.063 76.815 541.663 77.155C542.263 77.495 542.723 77.965 543.043 78.565C543.373 79.155 543.538 79.825 543.538 80.575ZM542.128 80.29C542.128 79.77 542.013 79.325 541.783 78.955C541.553 78.575 541.238 78.29 540.838 78.1C540.448 77.9 540.013 77.8 539.533 77.8C538.843 77.8 538.253 78.02 537.763 78.46C537.283 78.9 537.008 79.51 536.938 80.29H542.128ZM549.495 76.63C550.495 76.63 551.305 76.935 551.925 77.545C552.545 78.145 552.855 79.015 552.855 80.155V85H551.505V80.35C551.505 79.53 551.3 78.905 550.89 78.475C550.48 78.035 549.92 77.815 549.21 77.815C548.49 77.815 547.915 78.04 547.485 78.49C547.065 78.94 546.855 79.595 546.855 80.455V85H545.49V76.78H546.855V77.95C547.125 77.53 547.49 77.205 547.95 76.975C548.42 76.745 548.935 76.63 549.495 76.63ZM554.724 80.86C554.724 80.02 554.894 79.285 555.234 78.655C555.574 78.015 556.039 77.52 556.629 77.17C557.229 76.82 557.894 76.645 558.624 76.645C559.344 76.645 559.969 76.8 560.499 77.11C561.029 77.42 561.424 77.81 561.684 78.28V76.78H563.064V85H561.684V83.47C561.414 83.95 561.009 84.35 560.469 84.67C559.939 84.98 559.319 85.135 558.609 85.135C557.879 85.135 557.219 84.955 556.629 84.595C556.039 84.235 555.574 83.73 555.234 83.08C554.894 82.43 554.724 81.69 554.724 80.86ZM561.684 80.875C561.684 80.255 561.559 79.715 561.309 79.255C561.059 78.795 560.719 78.445 560.289 78.205C559.869 77.955 559.404 77.83 558.894 77.83C558.384 77.83 557.919 77.95 557.499 78.19C557.079 78.43 556.744 78.78 556.494 79.24C556.244 79.7 556.119 80.24 556.119 80.86C556.119 81.49 556.244 82.04 556.494 82.51C556.744 82.97 557.079 83.325 557.499 83.575C557.919 83.815 558.384 83.935 558.894 83.935C559.404 83.935 559.869 83.815 560.289 83.575C560.719 83.325 561.059 82.97 561.309 82.51C561.559 82.04 561.684 81.495 561.684 80.875ZM569.526 76.63C570.526 76.63 571.336 76.935 571.956 77.545C572.576 78.145 572.886 79.015 572.886 80.155V85H571.536V80.35C571.536 79.53 571.331 78.905 570.921 78.475C570.511 78.035 569.951 77.815 569.241 77.815C568.521 77.815 567.946 78.04 567.516 78.49C567.096 78.94 566.886 79.595 566.886 80.455V85H565.521V76.78H566.886V77.95C567.156 77.53 567.521 77.205 567.981 76.975C568.451 76.745 568.966 76.63 569.526 76.63ZM574.756 80.875C574.756 80.025 574.926 79.285 575.266 78.655C575.606 78.015 576.076 77.52 576.676 77.17C577.286 76.82 577.981 76.645 578.761 76.645C579.771 76.645 580.601 76.89 581.251 77.38C581.911 77.87 582.346 78.55 582.556 79.42H581.086C580.946 78.92 580.671 78.525 580.261 78.235C579.861 77.945 579.361 77.8 578.761 77.8C577.981 77.8 577.351 78.07 576.871 78.61C576.391 79.14 576.151 79.895 576.151 80.875C576.151 81.865 576.391 82.63 576.871 83.17C577.351 83.71 577.981 83.98 578.761 83.98C579.361 83.98 579.861 83.84 580.261 83.56C580.661 83.28 580.936 82.88 581.086 82.36H582.556C582.336 83.2 581.896 83.875 581.236 84.385C580.576 84.885 579.751 85.135 578.761 85.135C577.981 85.135 577.286 84.96 576.676 84.61C576.076 84.26 575.606 83.765 575.266 83.125C574.926 82.485 574.756 81.735 574.756 80.875ZM592.027 80.575C592.027 80.835 592.012 81.11 591.982 81.4H585.412C585.462 82.21 585.737 82.845 586.237 83.305C586.747 83.755 587.362 83.98 588.082 83.98C588.672 83.98 589.162 83.845 589.552 83.575C589.952 83.295 590.232 82.925 590.392 82.465H591.862C591.642 83.255 591.202 83.9 590.542 84.4C589.882 84.89 589.062 85.135 588.082 85.135C587.302 85.135 586.602 84.96 585.982 84.61C585.372 84.26 584.892 83.765 584.542 83.125C584.192 82.475 584.017 81.725 584.017 80.875C584.017 80.025 584.187 79.28 584.527 78.64C584.867 78 585.342 77.51 585.952 77.17C586.572 76.82 587.282 76.645 588.082 76.645C588.862 76.645 589.552 76.815 590.152 77.155C590.752 77.495 591.212 77.965 591.532 78.565C591.862 79.155 592.027 79.825 592.027 80.575ZM590.617 80.29C590.617 79.77 590.502 79.325 590.272 78.955C590.042 78.575 589.727 78.29 589.327 78.1C588.937 77.9 588.502 77.8 588.022 77.8C587.332 77.8 586.742 78.02 586.252 78.46C585.772 78.9 585.497 79.51 585.427 80.29H590.617Z" fill="#444E61"/>
<path d="M133 157.333C133.884 157.333 134.732 156.982 135.357 156.357C135.982 155.732 136.333 154.884 136.333 154C136.333 153.116 135.982 152.268 135.357 151.643C134.732 151.018 133.884 150.667 133 150.667C132.116 150.667 131.268 151.018 130.643 151.643C130.018 152.268 129.667 153.116 129.667 154C129.667 154.884 130.018 155.732 130.643 156.357C131.268 156.982 132.116 157.333 133 157.333ZM143 142.333C143.884 142.333 144.732 142.684 145.357 143.31C145.982 143.935 146.333 144.783 146.333 145.667V162.333C146.333 163.217 145.982 164.065 145.357 164.69C144.732 165.315 143.884 165.667 143 165.667H123C122.116 165.667 121.268 165.315 120.643 164.69C120.018 164.065 119.667 163.217 119.667 162.333V145.667C119.667 144.783 120.018 143.935 120.643 143.31C121.268 142.684 122.116 142.333 123 142.333H124.667V139C124.667 136.79 125.545 134.67 127.107 133.107C128.67 131.545 130.79 130.667 133 130.667C134.094 130.667 135.178 130.882 136.189 131.301C137.2 131.72 138.119 132.334 138.893 133.107C139.666 133.881 140.28 134.8 140.699 135.811C141.118 136.822 141.333 137.906 141.333 139V142.333H143ZM133 134C131.674 134 130.402 134.527 129.464 135.464C128.527 136.402 128 137.674 128 139V142.333H138V139C138 137.674 137.473 136.402 136.536 135.464C135.598 134.527 134.326 134 133 134Z" fill="#2F3A4F"/>
<path d="M111.241 195.105C110.551 195.105 109.931 194.985 109.381 194.745C108.841 194.495 108.416 194.155 108.106 193.725C107.796 193.285 107.636 192.78 107.626 192.21H109.081C109.131 192.7 109.331 193.115 109.681 193.455C110.041 193.785 110.561 193.95 111.241 193.95C111.891 193.95 112.401 193.79 112.771 193.47C113.151 193.14 113.341 192.72 113.341 192.21C113.341 191.81 113.231 191.485 113.011 191.235C112.791 190.985 112.516 190.795 112.186 190.665C111.856 190.535 111.411 190.395 110.851 190.245C110.161 190.065 109.606 189.885 109.186 189.705C108.776 189.525 108.421 189.245 108.121 188.865C107.831 188.475 107.686 187.955 107.686 187.305C107.686 186.735 107.831 186.23 108.121 185.79C108.411 185.35 108.816 185.01 109.336 184.77C109.866 184.53 110.471 184.41 111.151 184.41C112.131 184.41 112.931 184.655 113.551 185.145C114.181 185.635 114.536 186.285 114.616 187.095H113.116C113.066 186.695 112.856 186.345 112.486 186.045C112.116 185.735 111.626 185.58 111.016 185.58C110.446 185.58 109.981 185.73 109.621 186.03C109.261 186.32 109.081 186.73 109.081 187.26C109.081 187.64 109.186 187.95 109.396 188.19C109.616 188.43 109.881 188.615 110.191 188.745C110.511 188.865 110.956 189.005 111.526 189.165C112.216 189.355 112.771 189.545 113.191 189.735C113.611 189.915 113.971 190.2 114.271 190.59C114.571 190.97 114.721 191.49 114.721 192.15C114.721 192.66 114.586 193.14 114.316 193.59C114.046 194.04 113.646 194.405 113.116 194.685C112.586 194.965 111.961 195.105 111.241 195.105ZM124.379 190.575C124.379 190.835 124.364 191.11 124.334 191.4H117.764C117.814 192.21 118.089 192.845 118.589 193.305C119.099 193.755 119.714 193.98 120.434 193.98C121.024 193.98 121.514 193.845 121.904 193.575C122.304 193.295 122.584 192.925 122.744 192.465H124.214C123.994 193.255 123.554 193.9 122.894 194.4C122.234 194.89 121.414 195.135 120.434 195.135C119.654 195.135 118.954 194.96 118.334 194.61C117.724 194.26 117.244 193.765 116.894 193.125C116.544 192.475 116.369 191.725 116.369 190.875C116.369 190.025 116.539 189.28 116.879 188.64C117.219 188 117.694 187.51 118.304 187.17C118.924 186.82 119.634 186.645 120.434 186.645C121.214 186.645 121.904 186.815 122.504 187.155C123.104 187.495 123.564 187.965 123.884 188.565C124.214 189.155 124.379 189.825 124.379 190.575ZM122.969 190.29C122.969 189.77 122.854 189.325 122.624 188.955C122.394 188.575 122.079 188.29 121.679 188.1C121.289 187.9 120.854 187.8 120.374 187.8C119.684 187.8 119.094 188.02 118.604 188.46C118.124 188.9 117.849 189.51 117.779 190.29H122.969ZM125.821 190.875C125.821 190.025 125.991 189.285 126.331 188.655C126.671 188.015 127.141 187.52 127.741 187.17C128.351 186.82 129.046 186.645 129.826 186.645C130.836 186.645 131.666 186.89 132.316 187.38C132.976 187.87 133.411 188.55 133.621 189.42H132.151C132.011 188.92 131.736 188.525 131.326 188.235C130.926 187.945 130.426 187.8 129.826 187.8C129.046 187.8 128.416 188.07 127.936 188.61C127.456 189.14 127.216 189.895 127.216 190.875C127.216 191.865 127.456 192.63 127.936 193.17C128.416 193.71 129.046 193.98 129.826 193.98C130.426 193.98 130.926 193.84 131.326 193.56C131.726 193.28 132.001 192.88 132.151 192.36H133.621C133.401 193.2 132.961 193.875 132.301 194.385C131.641 194.885 130.816 195.135 129.826 195.135C129.046 195.135 128.351 194.96 127.741 194.61C127.141 194.26 126.671 193.765 126.331 193.125C125.991 192.485 125.821 191.735 125.821 190.875ZM142.882 186.78V195H141.517V193.785C141.257 194.205 140.892 194.535 140.422 194.775C139.962 195.005 139.452 195.12 138.892 195.12C138.252 195.12 137.677 194.99 137.167 194.73C136.657 194.46 136.252 194.06 135.952 193.53C135.662 193 135.517 192.355 135.517 191.595V186.78H136.867V191.415C136.867 192.225 137.072 192.85 137.482 193.29C137.892 193.72 138.452 193.935 139.162 193.935C139.892 193.935 140.467 193.71 140.887 193.26C141.307 192.81 141.517 192.155 141.517 191.295V186.78H142.882ZM146.702 188.115C146.942 187.645 147.282 187.28 147.722 187.02C148.172 186.76 148.717 186.63 149.357 186.63V188.04H148.997C147.467 188.04 146.702 188.87 146.702 190.53V195H145.337V186.78H146.702V188.115ZM158.583 190.575C158.583 190.835 158.568 191.11 158.538 191.4H151.968C152.018 192.21 152.293 192.845 152.793 193.305C153.303 193.755 153.918 193.98 154.638 193.98C155.228 193.98 155.718 193.845 156.108 193.575C156.508 193.295 156.788 192.925 156.948 192.465H158.418C158.198 193.255 157.758 193.9 157.098 194.4C156.438 194.89 155.618 195.135 154.638 195.135C153.858 195.135 153.158 194.96 152.538 194.61C151.928 194.26 151.448 193.765 151.098 193.125C150.748 192.475 150.573 191.725 150.573 190.875C150.573 190.025 150.743 189.28 151.083 188.64C151.423 188 151.898 187.51 152.508 187.17C153.128 186.82 153.838 186.645 154.638 186.645C155.418 186.645 156.108 186.815 156.708 187.155C157.308 187.495 157.768 187.965 158.088 188.565C158.418 189.155 158.583 189.825 158.583 190.575ZM157.173 190.29C157.173 189.77 157.058 189.325 156.828 188.955C156.598 188.575 156.283 188.29 155.883 188.1C155.493 187.9 155.058 187.8 154.578 187.8C153.888 187.8 153.298 188.02 152.808 188.46C152.328 188.9 152.053 189.51 151.983 190.29H157.173ZM107.15 206.605C107.15 207.475 106.85 208.2 106.25 208.78C105.66 209.35 104.755 209.635 103.535 209.635H101.525V214H100.16V203.545H103.535C104.715 203.545 105.61 203.83 106.22 204.4C106.84 204.97 107.15 205.705 107.15 206.605ZM103.535 208.51C104.295 208.51 104.855 208.345 105.215 208.015C105.575 207.685 105.755 207.215 105.755 206.605C105.755 205.315 105.015 204.67 103.535 204.67H101.525V208.51H103.535ZM108.487 209.86C108.487 209.02 108.657 208.285 108.997 207.655C109.337 207.015 109.802 206.52 110.392 206.17C110.992 205.82 111.657 205.645 112.387 205.645C113.107 205.645 113.732 205.8 114.262 206.11C114.792 206.42 115.187 206.81 115.447 207.28V205.78H116.827V214H115.447V212.47C115.177 212.95 114.772 213.35 114.232 213.67C113.702 213.98 113.082 214.135 112.372 214.135C111.642 214.135 110.982 213.955 110.392 213.595C109.802 213.235 109.337 212.73 108.997 212.08C108.657 211.43 108.487 210.69 108.487 209.86ZM115.447 209.875C115.447 209.255 115.322 208.715 115.072 208.255C114.822 207.795 114.482 207.445 114.052 207.205C113.632 206.955 113.167 206.83 112.657 206.83C112.147 206.83 111.682 206.95 111.262 207.19C110.842 207.43 110.507 207.78 110.257 208.24C110.007 208.7 109.882 209.24 109.882 209.86C109.882 210.49 110.007 211.04 110.257 211.51C110.507 211.97 110.842 212.325 111.262 212.575C111.682 212.815 112.147 212.935 112.657 212.935C113.167 212.935 113.632 212.815 114.052 212.575C114.482 212.325 114.822 211.97 115.072 211.51C115.322 211.04 115.447 210.495 115.447 209.875ZM126.363 205.78L121.413 217.87H120.003L121.623 213.91L118.308 205.78H119.823L122.403 212.44L124.953 205.78H126.363ZM137.77 205.63C138.41 205.63 138.98 205.765 139.48 206.035C139.98 206.295 140.375 206.69 140.665 207.22C140.955 207.75 141.1 208.395 141.1 209.155V214H139.75V209.35C139.75 208.53 139.545 207.905 139.135 207.475C138.735 207.035 138.19 206.815 137.5 206.815C136.79 206.815 136.225 207.045 135.805 207.505C135.385 207.955 135.175 208.61 135.175 209.47V214H133.825V209.35C133.825 208.53 133.62 207.905 133.21 207.475C132.81 207.035 132.265 206.815 131.575 206.815C130.865 206.815 130.3 207.045 129.88 207.505C129.46 207.955 129.25 208.61 129.25 209.47V214H127.885V205.78H129.25V206.965C129.52 206.535 129.88 206.205 130.33 205.975C130.79 205.745 131.295 205.63 131.845 205.63C132.535 205.63 133.145 205.785 133.675 206.095C134.205 206.405 134.6 206.86 134.86 207.46C135.09 206.88 135.47 206.43 136 206.11C136.53 205.79 137.12 205.63 137.77 205.63ZM150.99 209.575C150.99 209.835 150.975 210.11 150.945 210.4H144.375C144.425 211.21 144.7 211.845 145.2 212.305C145.71 212.755 146.325 212.98 147.045 212.98C147.635 212.98 148.125 212.845 148.515 212.575C148.915 212.295 149.195 211.925 149.355 211.465H150.825C150.605 212.255 150.165 212.9 149.505 213.4C148.845 213.89 148.025 214.135 147.045 214.135C146.265 214.135 145.565 213.96 144.945 213.61C144.335 213.26 143.855 212.765 143.505 212.125C143.155 211.475 142.98 210.725 142.98 209.875C142.98 209.025 143.15 208.28 143.49 207.64C143.83 207 144.305 206.51 144.915 206.17C145.535 205.82 146.245 205.645 147.045 205.645C147.825 205.645 148.515 205.815 149.115 206.155C149.715 206.495 150.175 206.965 150.495 207.565C150.825 208.155 150.99 208.825 150.99 209.575ZM149.58 209.29C149.58 208.77 149.465 208.325 149.235 207.955C149.005 207.575 148.69 207.29 148.29 207.1C147.9 206.9 147.465 206.8 146.985 206.8C146.295 206.8 145.705 207.02 145.215 207.46C144.735 207.9 144.46 208.51 144.39 209.29H149.58ZM156.946 205.63C157.946 205.63 158.756 205.935 159.376 206.545C159.996 207.145 160.306 208.015 160.306 209.155V214H158.956V209.35C158.956 208.53 158.751 207.905 158.341 207.475C157.931 207.035 157.371 206.815 156.661 206.815C155.941 206.815 155.366 207.04 154.936 207.49C154.516 207.94 154.306 208.595 154.306 209.455V214H152.941V205.78H154.306V206.95C154.576 206.53 154.941 206.205 155.401 205.975C155.871 205.745 156.386 205.63 156.946 205.63ZM164.351 206.905V211.75C164.351 212.15 164.436 212.435 164.606 212.605C164.776 212.765 165.071 212.845 165.491 212.845H166.496V214H165.266C164.506 214 163.936 213.825 163.556 213.475C163.176 213.125 162.986 212.55 162.986 211.75V206.905H161.921V205.78H162.986V203.71H164.351V205.78H166.496V206.905H164.351Z" fill="#444E61"/>
<path d="M307.7 153.6C308.283 152.183 308.6 150.667 308.6 149C308.6 147.8 308.417 146.65 308.1 145.583C307.017 145.833 305.883 145.967 304.7 145.967C302.277 145.969 299.888 145.389 297.736 144.275C295.584 143.161 293.731 141.547 292.333 139.567C290.84 143.185 288.02 146.094 284.45 147.7C284.383 148.117 284.383 148.567 284.383 149C284.383 150.591 284.697 152.167 285.306 153.637C285.915 155.107 286.807 156.443 287.932 157.568C290.205 159.84 293.287 161.117 296.5 161.117C298.25 161.117 299.933 160.733 301.45 160.05C302.4 161.867 302.833 162.767 302.8 162.767C300.067 163.683 297.95 164.133 296.5 164.133C292.467 164.133 288.617 162.55 285.783 159.7C284.058 157.983 282.777 155.872 282.05 153.55H279.833V145.967H281.65C282.2 143.287 283.466 140.807 285.312 138.789C287.158 136.771 289.516 135.291 292.136 134.505C294.756 133.718 297.539 133.656 300.191 134.324C302.844 134.993 305.266 136.366 307.2 138.3C309.3 140.393 310.732 143.06 311.317 145.967H313.167V153.55H313.067L307.133 159L298.3 158V155.217H306.35L307.7 153.6ZM291.95 148.617C292.45 148.617 292.933 148.817 293.283 149.183C293.635 149.538 293.832 150.017 293.832 150.517C293.832 151.016 293.635 151.495 293.283 151.85C292.933 152.2 292.45 152.4 291.95 152.4C290.9 152.4 290.05 151.567 290.05 150.517C290.05 149.467 290.9 148.617 291.95 148.617ZM301.033 148.617C302.083 148.617 302.917 149.467 302.917 150.517C302.917 151.567 302.083 152.4 301.033 152.4C299.983 152.4 299.133 151.567 299.133 150.517C299.133 150.013 299.334 149.529 299.69 149.173C300.046 148.817 300.529 148.617 301.033 148.617Z" fill="#2F3A4F"/>
<path d="M280.268 193.905C281.538 192.885 282.533 192.05 283.253 191.4C283.973 190.74 284.578 190.055 285.068 189.345C285.568 188.625 285.818 187.92 285.818 187.23C285.818 186.58 285.658 186.07 285.338 185.7C285.028 185.32 284.523 185.13 283.823 185.13C283.143 185.13 282.613 185.345 282.233 185.775C281.863 186.195 281.663 186.76 281.633 187.47H280.313C280.353 186.35 280.693 185.485 281.333 184.875C281.973 184.265 282.798 183.96 283.808 183.96C284.838 183.96 285.653 184.245 286.253 184.815C286.863 185.385 287.168 186.17 287.168 187.17C287.168 188 286.918 188.81 286.418 189.6C285.928 190.38 285.368 191.07 284.738 191.67C284.108 192.26 283.303 192.95 282.323 193.74H287.483V194.88H280.268V193.905ZM288.88 192.585V191.55L294.145 184.26H295.78V191.4H297.28V192.585H295.78V195H294.43V192.585H288.88ZM294.49 185.685L290.455 191.4H294.49V185.685ZM303.669 184.95L304.209 185.925L302.124 186.795L304.224 187.65L303.654 188.655L301.839 187.335L302.079 189.6H300.954L301.179 187.335L299.364 188.67L298.779 187.65L300.864 186.78L298.779 185.94L299.334 184.935L301.194 186.27L300.954 183.99H302.094L301.839 186.27L303.669 184.95ZM312.914 185.22L308.744 195H307.364L311.594 185.355H305.804V184.185H312.914V185.22ZM270.857 214.105C270.167 214.105 269.547 213.985 268.997 213.745C268.457 213.495 268.032 213.155 267.722 212.725C267.412 212.285 267.252 211.78 267.242 211.21H268.697C268.747 211.7 268.947 212.115 269.297 212.455C269.657 212.785 270.177 212.95 270.857 212.95C271.507 212.95 272.017 212.79 272.387 212.47C272.767 212.14 272.957 211.72 272.957 211.21C272.957 210.81 272.847 210.485 272.627 210.235C272.407 209.985 272.132 209.795 271.802 209.665C271.472 209.535 271.027 209.395 270.467 209.245C269.777 209.065 269.222 208.885 268.802 208.705C268.392 208.525 268.037 208.245 267.737 207.865C267.447 207.475 267.302 206.955 267.302 206.305C267.302 205.735 267.447 205.23 267.737 204.79C268.027 204.35 268.432 204.01 268.952 203.77C269.482 203.53 270.087 203.41 270.767 203.41C271.747 203.41 272.547 203.655 273.167 204.145C273.797 204.635 274.152 205.285 274.232 206.095H272.732C272.682 205.695 272.472 205.345 272.102 205.045C271.732 204.735 271.242 204.58 270.632 204.58C270.062 204.58 269.597 204.73 269.237 205.03C268.877 205.32 268.697 205.73 268.697 206.26C268.697 206.64 268.802 206.95 269.012 207.19C269.232 207.43 269.497 207.615 269.807 207.745C270.127 207.865 270.572 208.005 271.142 208.165C271.832 208.355 272.387 208.545 272.807 208.735C273.227 208.915 273.587 209.2 273.887 209.59C274.187 209.97 274.337 210.49 274.337 211.15C274.337 211.66 274.202 212.14 273.932 212.59C273.662 213.04 273.262 213.405 272.732 213.685C272.202 213.965 271.577 214.105 270.857 214.105ZM283.786 205.78V214H282.421V212.785C282.161 213.205 281.796 213.535 281.326 213.775C280.866 214.005 280.356 214.12 279.796 214.12C279.156 214.12 278.581 213.99 278.071 213.73C277.561 213.46 277.156 213.06 276.856 212.53C276.566 212 276.421 211.355 276.421 210.595V205.78H277.771V210.415C277.771 211.225 277.976 211.85 278.386 212.29C278.796 212.72 279.356 212.935 280.066 212.935C280.796 212.935 281.371 212.71 281.791 212.26C282.211 211.81 282.421 211.155 282.421 210.295V205.78H283.786ZM287.605 207.295C287.875 206.825 288.275 206.435 288.805 206.125C289.345 205.805 289.97 205.645 290.68 205.645C291.41 205.645 292.07 205.82 292.66 206.17C293.26 206.52 293.73 207.015 294.07 207.655C294.41 208.285 294.58 209.02 294.58 209.86C294.58 210.69 294.41 211.43 294.07 212.08C293.73 212.73 293.26 213.235 292.66 213.595C292.07 213.955 291.41 214.135 290.68 214.135C289.98 214.135 289.36 213.98 288.82 213.67C288.29 213.35 287.885 212.955 287.605 212.485V217.9H286.24V205.78H287.605V207.295ZM293.185 209.86C293.185 209.24 293.06 208.7 292.81 208.24C292.56 207.78 292.22 207.43 291.79 207.19C291.37 206.95 290.905 206.83 290.395 206.83C289.895 206.83 289.43 206.955 289 207.205C288.58 207.445 288.24 207.8 287.98 208.27C287.73 208.73 287.605 209.265 287.605 209.875C287.605 210.495 287.73 211.04 287.98 211.51C288.24 211.97 288.58 212.325 289 212.575C289.43 212.815 289.895 212.935 290.395 212.935C290.905 212.935 291.37 212.815 291.79 212.575C292.22 212.325 292.56 211.97 292.81 211.51C293.06 211.04 293.185 210.49 293.185 209.86ZM297.892 207.295C298.162 206.825 298.562 206.435 299.092 206.125C299.632 205.805 300.257 205.645 300.967 205.645C301.697 205.645 302.357 205.82 302.947 206.17C303.547 206.52 304.017 207.015 304.357 207.655C304.697 208.285 304.867 209.02 304.867 209.86C304.867 210.69 304.697 211.43 304.357 212.08C304.017 212.73 303.547 213.235 302.947 213.595C302.357 213.955 301.697 214.135 300.967 214.135C300.267 214.135 299.647 213.98 299.107 213.67C298.577 213.35 298.172 212.955 297.892 212.485V217.9H296.527V205.78H297.892V207.295ZM303.472 209.86C303.472 209.24 303.347 208.7 303.097 208.24C302.847 207.78 302.507 207.43 302.077 207.19C301.657 206.95 301.192 206.83 300.682 206.83C300.182 206.83 299.717 206.955 299.287 207.205C298.867 207.445 298.527 207.8 298.267 208.27C298.017 208.73 297.892 209.265 297.892 209.875C297.892 210.495 298.017 211.04 298.267 211.51C298.527 211.97 298.867 212.325 299.287 212.575C299.717 212.815 300.182 212.935 300.682 212.935C301.192 212.935 301.657 212.815 302.077 212.575C302.507 212.325 302.847 211.97 303.097 211.51C303.347 211.04 303.472 210.49 303.472 209.86ZM310.399 214.135C309.629 214.135 308.929 213.96 308.299 213.61C307.679 213.26 307.189 212.765 306.829 212.125C306.479 211.475 306.304 210.725 306.304 209.875C306.304 209.035 306.484 208.295 306.844 207.655C307.214 207.005 307.714 206.51 308.344 206.17C308.974 205.82 309.679 205.645 310.459 205.645C311.239 205.645 311.944 205.82 312.574 206.17C313.204 206.51 313.699 207 314.059 207.64C314.429 208.28 314.614 209.025 314.614 209.875C314.614 210.725 314.424 211.475 314.044 212.125C313.674 212.765 313.169 213.26 312.529 213.61C311.889 213.96 311.179 214.135 310.399 214.135ZM310.399 212.935C310.889 212.935 311.349 212.82 311.779 212.59C312.209 212.36 312.554 212.015 312.814 211.555C313.084 211.095 313.219 210.535 313.219 209.875C313.219 209.215 313.089 208.655 312.829 208.195C312.569 207.735 312.229 207.395 311.809 207.175C311.389 206.945 310.934 206.83 310.444 206.83C309.944 206.83 309.484 206.945 309.064 207.175C308.654 207.395 308.324 207.735 308.074 208.195C307.824 208.655 307.699 209.215 307.699 209.875C307.699 210.545 307.819 211.11 308.059 211.57C308.309 212.03 308.639 212.375 309.049 212.605C309.459 212.825 309.909 212.935 310.399 212.935ZM317.924 207.115C318.164 206.645 318.504 206.28 318.944 206.02C319.394 205.76 319.939 205.63 320.579 205.63V207.04H320.219C318.689 207.04 317.924 207.87 317.924 209.53V214H316.559V205.78H317.924V207.115ZM323.969 206.905V211.75C323.969 212.15 324.054 212.435 324.224 212.605C324.394 212.765 324.689 212.845 325.109 212.845H326.114V214H324.884C324.124 214 323.554 213.825 323.174 213.475C322.794 213.125 322.604 212.55 322.604 211.75V206.905H321.539V205.78H322.604V203.71H323.969V205.78H326.114V206.905H323.969Z" fill="#444E61"/>
<mask id="mask0_450_14137" style="mask-type:luminance" maskUnits="userSpaceOnUse" x="442" y="131" width="36" height="36">
<path d="M460 165.667C462.189 165.669 464.357 165.24 466.38 164.402C468.402 163.564 470.239 162.335 471.785 160.785C473.335 159.239 474.564 157.402 475.402 155.38C476.24 153.357 476.669 151.189 476.667 149C476.669 146.811 476.24 144.643 475.402 142.62C474.564 140.598 473.335 138.761 471.785 137.215C470.239 135.665 468.402 134.436 466.38 133.598C464.357 132.761 462.189 132.331 460 132.333C457.811 132.331 455.643 132.761 453.62 133.598C451.598 134.436 449.761 135.665 448.215 137.215C446.665 138.761 445.436 140.598 444.598 142.62C443.761 144.643 443.331 146.811 443.333 149C443.331 151.189 443.761 153.357 444.598 155.38C445.436 157.402 446.665 159.239 448.215 160.785C449.761 162.335 451.598 163.564 453.62 164.402C455.643 165.24 457.811 165.669 460 165.667Z" fill="white" stroke="white" stroke-width="2" stroke-linejoin="round"/>
<path d="M453.333 149L458.333 154L468.333 144" stroke="black" stroke-width="2" stroke-linecap="round" stroke-linejoin="round"/>
</mask>
<g mask="url(#mask0_450_14137)">
<path d="M440 129H480V169H440V129Z" fill="#2F3A4F"/>
</g>
<path d="M437.248 187.575C436.958 186.965 436.538 186.495 435.988 186.165C435.438 185.825 434.798 185.655 434.068 185.655C433.338 185.655 432.678 185.825 432.088 186.165C431.508 186.495 431.048 186.975 430.708 187.605C430.378 188.225 430.213 188.945 430.213 189.765C430.213 190.585 430.378 191.305 430.708 191.925C431.048 192.545 431.508 193.025 432.088 193.365C432.678 193.695 433.338 193.86 434.068 193.86C435.088 193.86 435.928 193.555 436.588 192.945C437.248 192.335 437.633 191.51 437.743 190.47H433.573V189.36H439.198V190.41C439.118 191.27 438.848 192.06 438.388 192.78C437.928 193.49 437.323 194.055 436.573 194.475C435.823 194.885 434.988 195.09 434.068 195.09C433.098 195.09 432.213 194.865 431.413 194.415C430.613 193.955 429.978 193.32 429.508 192.51C429.048 191.7 428.818 190.785 428.818 189.765C428.818 188.745 429.048 187.83 429.508 187.02C429.978 186.2 430.613 185.565 431.413 185.115C432.213 184.655 433.098 184.425 434.068 184.425C435.178 184.425 436.158 184.7 437.008 185.25C437.868 185.8 438.493 186.575 438.883 187.575H437.248ZM448.653 190.575C448.653 190.835 448.638 191.11 448.608 191.4H442.038C442.088 192.21 442.363 192.845 442.863 193.305C443.373 193.755 443.988 193.98 444.708 193.98C445.298 193.98 445.788 193.845 446.178 193.575C446.578 193.295 446.858 192.925 447.018 192.465H448.488C448.268 193.255 447.828 193.9 447.168 194.4C446.508 194.89 445.688 195.135 444.708 195.135C443.928 195.135 443.228 194.96 442.608 194.61C441.998 194.26 441.518 193.765 441.168 193.125C440.818 192.475 440.643 191.725 440.643 190.875C440.643 190.025 440.813 189.28 441.153 188.64C441.493 188 441.968 187.51 442.578 187.17C443.198 186.82 443.908 186.645 444.708 186.645C445.488 186.645 446.178 186.815 446.778 187.155C447.378 187.495 447.838 187.965 448.158 188.565C448.488 189.155 448.653 189.825 448.653 190.575ZM447.243 190.29C447.243 189.77 447.128 189.325 446.898 188.955C446.668 188.575 446.353 188.29 445.953 188.1C445.563 187.9 445.128 187.8 444.648 187.8C443.958 187.8 443.368 188.02 442.878 188.46C442.398 188.9 442.123 189.51 442.053 190.29H447.243ZM454.61 186.63C455.61 186.63 456.42 186.935 457.04 187.545C457.66 188.145 457.97 189.015 457.97 190.155V195H456.62V190.35C456.62 189.53 456.415 188.905 456.005 188.475C455.595 188.035 455.035 187.815 454.325 187.815C453.605 187.815 453.03 188.04 452.6 188.49C452.18 188.94 451.97 189.595 451.97 190.455V195H450.605V186.78H451.97V187.95C452.24 187.53 452.605 187.205 453.065 186.975C453.535 186.745 454.05 186.63 454.61 186.63ZM467.639 186.78V195H466.274V193.785C466.014 194.205 465.649 194.535 465.179 194.775C464.719 195.005 464.209 195.12 463.649 195.12C463.009 195.12 462.434 194.99 461.924 194.73C461.414 194.46 461.009 194.06 460.709 193.53C460.419 193 460.274 192.355 460.274 191.595V186.78H461.624V191.415C461.624 192.225 461.829 192.85 462.239 193.29C462.649 193.72 463.209 193.935 463.919 193.935C464.649 193.935 465.224 193.71 465.644 193.26C466.064 192.81 466.274 192.155 466.274 191.295V186.78H467.639ZM470.799 185.445C470.539 185.445 470.319 185.355 470.139 185.175C469.959 184.995 469.869 184.775 469.869 184.515C469.869 184.255 469.959 184.035 470.139 183.855C470.319 183.675 470.539 183.585 470.799 183.585C471.049 183.585 471.259 183.675 471.429 183.855C471.609 184.035 471.699 184.255 471.699 184.515C471.699 184.775 471.609 184.995 471.429 185.175C471.259 185.355 471.049 185.445 470.799 185.445ZM471.459 186.78V195H470.094V186.78H471.459ZM477.94 186.63C478.94 186.63 479.75 186.935 480.37 187.545C480.99 188.145 481.3 189.015 481.3 190.155V195H479.95V190.35C479.95 189.53 479.745 188.905 479.335 188.475C478.925 188.035 478.365 187.815 477.655 187.815C476.935 187.815 476.36 188.04 475.93 188.49C475.51 188.94 475.3 189.595 475.3 190.455V195H473.935V186.78H475.3V187.95C475.57 187.53 475.935 187.205 476.395 186.975C476.865 186.745 477.38 186.63 477.94 186.63ZM491.18 190.575C491.18 190.835 491.165 191.11 491.135 191.4H484.565C484.615 192.21 484.89 192.845 485.39 193.305C485.9 193.755 486.515 193.98 487.235 193.98C487.825 193.98 488.315 193.845 488.705 193.575C489.105 193.295 489.385 192.925 489.545 192.465H491.015C490.795 193.255 490.355 193.9 489.695 194.4C489.035 194.89 488.215 195.135 487.235 195.135C486.455 195.135 485.755 194.96 485.135 194.61C484.525 194.26 484.045 193.765 483.695 193.125C483.345 192.475 483.17 191.725 483.17 190.875C483.17 190.025 483.34 189.28 483.68 188.64C484.02 188 484.495 187.51 485.105 187.17C485.725 186.82 486.435 186.645 487.235 186.645C488.015 186.645 488.705 186.815 489.305 187.155C489.905 187.495 490.365 187.965 490.685 188.565C491.015 189.155 491.18 189.825 491.18 190.575ZM489.77 190.29C489.77 189.77 489.655 189.325 489.425 188.955C489.195 188.575 488.88 188.29 488.48 188.1C488.09 187.9 487.655 187.8 487.175 187.8C486.485 187.8 485.895 188.02 485.405 188.46C484.925 188.9 484.65 189.51 484.58 190.29H489.77ZM434.61 206.605C434.61 207.475 434.31 208.2 433.71 208.78C433.12 209.35 432.215 209.635 430.995 209.635H428.985V214H427.62V203.545H430.995C432.175 203.545 433.07 203.83 433.68 204.4C434.3 204.97 434.61 205.705 434.61 206.605ZM430.995 208.51C431.755 208.51 432.315 208.345 432.675 208.015C433.035 207.685 433.215 207.215 433.215 206.605C433.215 205.315 432.475 204.67 430.995 204.67H428.985V208.51H430.995ZM437.821 207.115C438.061 206.645 438.401 206.28 438.841 206.02C439.291 205.76 439.836 205.63 440.476 205.63V207.04H440.116C438.586 207.04 437.821 207.87 437.821 209.53V214H436.456V205.78H437.821V207.115ZM445.787 214.135C445.017 214.135 444.317 213.96 443.687 213.61C443.067 213.26 442.577 212.765 442.217 212.125C441.867 211.475 441.692 210.725 441.692 209.875C441.692 209.035 441.872 208.295 442.232 207.655C442.602 207.005 443.102 206.51 443.732 206.17C444.362 205.82 445.067 205.645 445.847 205.645C446.627 205.645 447.332 205.82 447.962 206.17C448.592 206.51 449.087 207 449.447 207.64C449.817 208.28 450.002 209.025 450.002 209.875C450.002 210.725 449.812 211.475 449.432 212.125C449.062 212.765 448.557 213.26 447.917 213.61C447.277 213.96 446.567 214.135 445.787 214.135ZM445.787 212.935C446.277 212.935 446.737 212.82 447.167 212.59C447.597 212.36 447.942 212.015 448.202 211.555C448.472 211.095 448.607 210.535 448.607 209.875C448.607 209.215 448.477 208.655 448.217 208.195C447.957 207.735 447.617 207.395 447.197 207.175C446.777 206.945 446.322 206.83 445.832 206.83C445.332 206.83 444.872 206.945 444.452 207.175C444.042 207.395 443.712 207.735 443.462 208.195C443.212 208.655 443.087 209.215 443.087 209.875C443.087 210.545 443.207 211.11 443.447 211.57C443.697 212.03 444.027 212.375 444.437 212.605C444.847 212.825 445.297 212.935 445.787 212.935ZM451.437 209.86C451.437 209.02 451.607 208.285 451.947 207.655C452.287 207.015 452.752 206.52 453.342 206.17C453.942 205.82 454.612 205.645 455.352 205.645C455.992 205.645 456.587 205.795 457.137 206.095C457.687 206.385 458.107 206.77 458.397 207.25V202.9H459.777V214H458.397V212.455C458.127 212.945 457.727 213.35 457.197 213.67C456.667 213.98 456.047 214.135 455.337 214.135C454.607 214.135 453.942 213.955 453.342 213.595C452.752 213.235 452.287 212.73 451.947 212.08C451.607 211.43 451.437 210.69 451.437 209.86ZM458.397 209.875C458.397 209.255 458.272 208.715 458.022 208.255C457.772 207.795 457.432 207.445 457.002 207.205C456.582 206.955 456.117 206.83 455.607 206.83C455.097 206.83 454.632 206.95 454.212 207.19C453.792 207.43 453.457 207.78 453.207 208.24C452.957 208.7 452.832 209.24 452.832 209.86C452.832 210.49 452.957 211.04 453.207 211.51C453.457 211.97 453.792 212.325 454.212 212.575C454.632 212.815 455.097 212.935 455.607 212.935C456.117 212.935 456.582 212.815 457.002 212.575C457.432 212.325 457.772 211.97 458.022 211.51C458.272 211.04 458.397 210.495 458.397 209.875ZM469.523 205.78V214H468.158V212.785C467.898 213.205 467.533 213.535 467.063 213.775C466.603 214.005 466.093 214.12 465.533 214.12C464.893 214.12 464.318 213.99 463.808 213.73C463.298 213.46 462.893 213.06 462.593 212.53C462.303 212 462.158 211.355 462.158 210.595V205.78H463.508V210.415C463.508 211.225 463.713 211.85 464.123 212.29C464.533 212.72 465.093 212.935 465.803 212.935C466.533 212.935 467.108 212.71 467.528 212.26C467.948 211.81 468.158 211.155 468.158 210.295V205.78H469.523ZM471.468 209.875C471.468 209.025 471.638 208.285 471.978 207.655C472.318 207.015 472.788 206.52 473.388 206.17C473.998 205.82 474.693 205.645 475.473 205.645C476.483 205.645 477.313 205.89 477.963 206.38C478.623 206.87 479.058 207.55 479.268 208.42H477.798C477.658 207.92 477.383 207.525 476.973 207.235C476.573 206.945 476.073 206.8 475.473 206.8C474.693 206.8 474.063 207.07 473.583 207.61C473.103 208.14 472.863 208.895 472.863 209.875C472.863 210.865 473.103 211.63 473.583 212.17C474.063 212.71 474.693 212.98 475.473 212.98C476.073 212.98 476.573 212.84 476.973 212.56C477.373 212.28 477.648 211.88 477.798 211.36H479.268C479.048 212.2 478.608 212.875 477.948 213.385C477.288 213.885 476.463 214.135 475.473 214.135C474.693 214.135 473.998 213.96 473.388 213.61C472.788 213.26 472.318 212.765 471.978 212.125C471.638 211.485 471.468 210.735 471.468 209.875ZM482.904 206.905V211.75C482.904 212.15 482.989 212.435 483.159 212.605C483.329 212.765 483.624 212.845 484.044 212.845H485.049V214H483.819C483.059 214 482.489 213.825 482.109 213.475C481.729 213.125 481.539 212.55 481.539 211.75V206.905H480.474V205.78H481.539V203.71H482.904V205.78H485.049V206.905H482.904ZM489.763 214.135C489.133 214.135 488.568 214.03 488.068 213.82C487.568 213.6 487.173 213.3 486.883 212.92C486.593 212.53 486.433 212.085 486.403 211.585H487.813C487.853 211.995 488.043 212.33 488.383 212.59C488.733 212.85 489.188 212.98 489.748 212.98C490.268 212.98 490.678 212.865 490.978 212.635C491.278 212.405 491.428 212.115 491.428 211.765C491.428 211.405 491.268 211.14 490.948 210.97C490.628 210.79 490.133 210.615 489.463 210.445C488.853 210.285 488.353 210.125 487.963 209.965C487.583 209.795 487.253 209.55 486.973 209.23C486.703 208.9 486.568 208.47 486.568 207.94C486.568 207.52 486.693 207.135 486.943 206.785C487.193 206.435 487.548 206.16 488.008 205.96C488.468 205.75 488.993 205.645 489.583 205.645C490.493 205.645 491.228 205.875 491.788 206.335C492.348 206.795 492.648 207.425 492.688 208.225H491.323C491.293 207.795 491.118 207.45 490.798 207.19C490.488 206.93 490.068 206.8 489.538 206.8C489.048 206.8 488.658 206.905 488.368 207.115C488.078 207.325 487.933 207.6 487.933 207.94C487.933 208.21 488.018 208.435 488.188 208.615C488.368 208.785 488.588 208.925 488.848 209.035C489.118 209.135 489.488 209.25 489.958 209.38C490.548 209.54 491.028 209.7 491.398 209.86C491.768 210.01 492.083 210.24 492.343 210.55C492.613 210.86 492.753 211.265 492.763 211.765C492.763 212.215 492.638 212.62 492.388 212.98C492.138 213.34 491.783 213.625 491.323 213.835C490.873 214.035 490.353 214.135 489.763 214.135Z" fill="#444E61"/>
</svg>
